{
    "asset": {
        "generator": "Khronos glTF Blender I/O v3.6.27",
        "version": "2.0"
    },
    "scene": 0,
    "scenes": [
        {
            "name": "Scene",
            "nodes": [
                0
            ]
        }
    ],
    "nodes": [
        {
            "mesh": 0,
            "name": "vffmejaiw_LOD0_TIER2_000",
            "rotation": [
                0.7071068286895752,
                0,
                0,
                0.7071068286895752
            ],
            "scale": [
                0.009999999776482582,
                0.009999999776482582,
                0.009999999776482582
            ]
        }
    ],
    "materials": [
        {
            "doubleSided": true,
            "name": "MI_vffmejaiw",
            "normalTexture": {
                "index": 0
            },
            "occlusionTexture": {
                "index": 1
            },
            "pbrMetallicRoughness": {
                "baseColorTexture": {
                    "index": 2
                },
                "metallicRoughnessTexture": {
                    "index": 1
                }
            }
        }
    ],
    "meshes": [
        {
            "name": "S_vffmejaiw_tier_2",
            "primitives": [
                {
                    "attributes": {
                        "POSITION": 0,
                        "NORMAL": 1,
                        "TEXCOORD_0": 2,
                        "TANGENT": 3
                    },
                    "indices": 4,
                    "material": 0
                }
            ]
        }
    ],
    "textures": [
        {
            "sampler": 0,
            "source": 0
        },
        {
            "sampler": 0,
            "source": 1
        },
        {
            "sampler": 0,
            "source": 2
        }
    ],
    "images": [
        {
            "mimeType": "image/png",
            "name": "T_vffmejaiw_2K_N",
            "uri": "Textures/T_vffmejaiw_2K_N.png"
        },
        {
            "mimeType": "image/png",
            "name": "T_vffmejaiw_2K_ORM",
            "uri": "Textures/T_vffmejaiw_2K_ORM.png",
            "extras": {
                "compression": "mask"
            }
        },
        {
            "mimeType": "image/png",
            "name": "T_vffmejaiw_2K_B",
            "uri": "Textures/T_vffmejaiw_2K_B.png"
        }
    ],
    "accessors": [
        {
            "bufferView": 0,
            "componentType": 5126,
            "count": 816,
            "max": [
                2.438290596008301,
                2.4204483032226562,
                2.0023157596588135
            ],
            "min": [
                -2.438290596008301,
                -2.4204483032226562,
                -2.0023157596588135
            ],
            "type": "VEC3"
        },
        {
            "bufferView": 1,
            "componentType": 5126,
            "count": 816,
            "type": "VEC3"
        },
        {
            "bufferView": 2,
            "componentType": 5126,
            "count": 816,
            "type": "VEC2"
        },
        {
            "bufferView": 3,
            "componentType": 5126,
            "count": 816,
            "type": "VEC4"
        },
        {
            "bufferView": 4,
            "componentType": 5123,
            "count": 3834,
            "type": "SCALAR"
        }
    ],
    "bufferViews": [
        {
            "buffer": 0,
            "byteLength": 9792,
            "byteOffset": 0,
            "target": 34962
        },
        {
            "buffer": 0,
            "byteLength": 9792,
            "byteOffset": 9792,
            "target": 34962
        },
        {
            "buffer": 0,
            "byteLength": 6528,
            "byteOffset": 19584,
            "target": 34962
        },
        {
            "buffer": 0,
            "byteLength": 13056,
            "byteOffset": 26112,
            "target": 34962
        },
        {
            "buffer": 0,
            "byteLength": 7668,
            "byteOffset": 39168,
            "target": 34963
        }
    ],
    "samplers": [
        {
            "magFilter": 9729,
            "minFilter": 9987
        }
    ],
    "buffers": [
        {
            "byteLength": 46836,
            "uri": "vffmejaiw_tier_2.bin"
        }
    ]
}